<svg width="56" height="56" viewBox="0 0 56 56" fill="none" xmlns="http://www.w3.org/2000/svg">
<path fill-rule="evenodd" clip-rule="evenodd" d="M0 10.1127V45.9634C0 51.4944 4.49432 55.9974 10.0174 55.9974H45.7944C51.3148 55.9974 55.8118 51.4944 55.8118 45.9634V10.1127C55.8118 4.57898 51.3148 0.0760498 45.7944 0.0760498H10.0174C4.49432 0.0760498 0 4.57898 0 10.1127Z" fill="#312782"/>
<path d="M24.736 42.7117H14.4455C13.5652 42.7117 12.8519 41.9971 12.8519 41.1151V23.7835C12.8519 22.9015 13.5652 22.1869 14.4455 22.1869C15.3258 22.1869 16.0391 22.9015 16.0391 23.7835V39.5158H24.736C25.6163 39.5158 26.3296 40.2331 26.3296 41.1124C26.3296 41.9918 25.6163 42.709 24.736 42.709V42.7117Z" fill="white"/>
<path d="M41.2285 42.7117H31.3648C30.4845 42.7117 29.7713 41.9971 29.7713 41.1151V32.7309H25.5527C24.6724 32.7309 23.9591 32.0136 23.9591 31.1343C23.9591 30.2549 24.6724 29.5377 25.5527 29.5377H31.3648C32.2451 29.5377 32.9584 30.2523 32.9584 31.1343V39.5158H39.6323V23.7835C39.6323 22.9015 40.3429 22.1869 41.2258 22.1869C42.1088 22.1869 42.8194 22.9015 42.8194 23.7835V41.1151C42.8194 41.9971 42.1035 42.7117 41.2258 42.7117H41.2285Z" fill="white"/>
<path d="M46.4202 21.9106C46.4414 21.8574 46.4573 21.8043 46.4732 21.7512C46.4758 21.7406 46.4811 21.7299 46.4838 21.7193C46.497 21.6741 46.505 21.6263 46.5156 21.5812C46.5183 21.5626 46.5236 21.544 46.5262 21.5254C46.5315 21.4855 46.5368 21.4483 46.5395 21.4085C46.5421 21.3819 46.5474 21.358 46.5474 21.3314C46.5474 21.2969 46.5474 21.265 46.5474 21.2305C46.5474 21.1986 46.5474 21.1694 46.5474 21.1375C46.5474 21.1083 46.5421 21.0791 46.5421 21.0498C46.5421 21.0153 46.5368 20.9808 46.5342 20.9462C46.5315 20.9197 46.5262 20.8931 46.5209 20.8665C46.5156 20.8293 46.5103 20.7948 46.5023 20.7576C46.497 20.7311 46.4891 20.7045 46.4811 20.6806C46.4705 20.646 46.4626 20.6088 46.452 20.5743C46.444 20.5477 46.4334 20.5212 46.4228 20.4946C46.4095 20.4627 46.3989 20.4282 46.3857 20.3963C46.3724 20.3671 46.3592 20.3405 46.3459 20.314C46.3326 20.2847 46.3167 20.2555 46.3008 20.2263C46.2849 20.1944 46.2637 20.1652 46.2451 20.136C46.2292 20.1121 46.216 20.0882 46.2001 20.0642C46.1789 20.0324 46.1523 20.0005 46.1285 19.9713C46.1126 19.9527 46.0993 19.9314 46.0834 19.9128C46.0569 19.8809 46.0251 19.8491 45.9959 19.8198C45.98 19.8039 45.9641 19.7853 45.9482 19.7694C45.9164 19.7401 45.8845 19.7109 45.8501 19.6844C45.8315 19.6684 45.8156 19.6525 45.797 19.6392C45.7652 19.6153 45.7308 19.5914 45.6989 19.5701C45.6777 19.5568 45.6592 19.5409 45.6379 19.5276L29.1508 8.89858C28.7584 8.64621 28.2997 8.54791 27.8516 8.59839C27.4061 8.54791 26.9447 8.64621 26.5523 8.89858L10.0652 19.5276C10.044 19.5409 10.0254 19.5568 10.0042 19.5701C9.96972 19.594 9.9379 19.6153 9.90608 19.6419C9.88752 19.6551 9.87161 19.6711 9.85305 19.687C9.81858 19.7162 9.78677 19.7428 9.75495 19.7747C9.73904 19.7906 9.72313 19.8066 9.70987 19.8225C9.6807 19.8544 9.64889 19.8836 9.62237 19.9181C9.60646 19.9367 9.5932 19.958 9.5773 19.9766C9.55343 20.0085 9.52692 20.0377 9.5057 20.0722C9.48979 20.0961 9.47654 20.12 9.46063 20.1439C9.44207 20.1732 9.42351 20.2024 9.40495 20.2343C9.38904 20.2635 9.37578 20.2927 9.36252 20.3219C9.34927 20.3485 9.33336 20.3777 9.32275 20.4043C9.30949 20.4362 9.29623 20.4707 9.28298 20.5052C9.27237 20.5318 9.26177 20.5557 9.25381 20.5823C9.2432 20.6168 9.2326 20.654 9.22464 20.6885C9.21669 20.7151 9.20873 20.739 9.20343 20.7656C9.19548 20.8028 9.19017 20.8373 9.18487 20.8745C9.17957 20.9011 9.17426 20.9276 9.17161 20.9542C9.16631 20.9887 9.16631 21.0233 9.16366 21.0578C9.16366 21.087 9.15836 21.1163 9.15836 21.1455C9.15836 21.1774 9.15836 21.2066 9.15836 21.2385C9.15836 21.273 9.15836 21.3049 9.15836 21.3394C9.15836 21.366 9.16366 21.3899 9.16631 21.4165C9.17161 21.4563 9.17426 21.4935 9.17957 21.5333C9.18222 21.5519 9.18752 21.5705 9.19282 21.5891C9.20078 21.6343 9.21139 21.6795 9.22464 21.7246C9.2273 21.7352 9.2326 21.7459 9.23525 21.7592C9.25116 21.8123 9.26707 21.8654 9.28828 21.9159C9.28828 21.9186 9.28828 21.9212 9.29093 21.9239C9.33601 22.0381 9.38904 22.1497 9.45533 22.2559C9.83449 22.859 10.4815 23.1937 11.1443 23.1937C11.3193 23.1937 19.4569 23.1937 27.8516 23.0928C36.2463 23.1964 44.3838 23.1937 44.5588 23.1937C45.2217 23.1937 45.8686 22.859 46.2478 22.2559C46.3141 22.147 46.3698 22.0354 46.4148 21.9212C46.4148 21.9212 46.4148 21.9159 46.4175 21.9159L46.4202 21.9106Z" fill="#F18B2E"/>
</svg>
