<svg width="642" height="509" viewBox="0 0 642 509" fill="none" xmlns="http://www.w3.org/2000/svg">
<g clip-path="url(#clip0_9140_10944)">
<path d="M62.1372 505.934C-1.12738 427.513 -2.95377 386.52 7.57576 363.514C18.1371 340.452 38.8865 340.341 51.965 310.799C68.609 273.213 44.445 252.105 50.1148 204.441C54.9746 163.591 80.8775 110.686 122.249 95.3113C171.641 76.9589 202.174 127.299 249.866 109.185C296.415 91.4995 284.536 37.006 337.716 11.157C376.912 -7.89427 432.696 -2.27974 458.861 25.9517C478.252 46.8771 468.89 66.7464 488.456 97.1617C513.486 136.058 549.188 122.502 563.362 149.876C584 189.726 521.323 228.154 534.696 286.753C544.606 330.192 584.358 332.305 604.98 381.088C623.506 424.932 612.111 472.223 598.508 506.863C419.721 506.553 240.933 506.244 62.1451 505.942L62.1372 505.934Z" fill="#3E3A97"/>
<path d="M520.497 471.485C519.838 468.253 517.075 453.101 526.556 441.562C532.234 434.645 542.827 428.403 547.48 431.659C552.022 434.836 549.863 446.303 546.162 453.482C539.23 466.943 524.15 470.683 520.497 471.485Z" stroke="#8754AF" stroke-width="2.25" stroke-miterlimit="10"/>
<path d="M511.032 472.708C507.951 471.532 493.673 465.751 489.004 451.568C486.209 443.071 486.606 430.777 491.847 428.586C496.961 426.449 505.481 434.415 509.571 441.387C517.226 454.451 512.31 469.19 511.032 472.708Z" stroke="#8754AF" stroke-width="2.25" stroke-miterlimit="10"/>
<path d="M522.427 481.768C524.626 479.307 535.124 468.046 550.045 468.753C558.986 469.173 570.318 473.938 570.485 479.624C570.651 485.167 560.162 490.281 552.197 491.6C537.26 494.077 525.254 484.214 522.427 481.768Z" stroke="#8754AF" stroke-width="2.25" stroke-miterlimit="10"/>
<path d="M500.939 507.094C505.092 498.216 510.063 488.694 516.019 478.8C524.364 464.934 533.012 453.03 541.175 443" stroke="#8754AF" stroke-width="2.25" stroke-miterlimit="10"/>
<path d="M497.691 444.35C502.932 461.106 515.368 479.887 515.368 479.887C515.368 479.887 530.249 485.772 554.23 480.729" stroke="#8754AF" stroke-width="2.25" stroke-miterlimit="10"/>
<path d="M639.284 506.283H2.71582" stroke="#8754AF" stroke-width="6.83" stroke-miterlimit="10" stroke-linecap="round"/>
<path d="M534.886 422.947H86.3327C67.7353 422.947 52.6636 407.875 52.6636 389.276V81.2871H568.555V389.276C568.555 407.875 553.484 422.947 534.886 422.947Z" fill="#D3D5FC"/>
<path d="M194.669 382.963L436.309 382.963C439.076 382.963 441.319 380.719 441.319 377.952V332.107C441.319 329.339 439.076 327.096 436.309 327.096H194.669C191.902 327.096 189.659 329.339 189.659 332.107V377.952C189.659 380.719 191.902 382.963 194.669 382.963Z" fill="white"/>
<path d="M194.669 314.953L436.309 314.953C439.076 314.953 441.319 312.71 441.319 309.942V264.097C441.319 261.329 439.076 259.086 436.309 259.086H194.669C191.902 259.086 189.659 261.329 189.659 264.097V309.942C189.659 312.71 191.902 314.953 194.669 314.953Z" fill="white"/>
<path d="M327.837 362.872C332.166 362.872 335.675 359.362 335.675 355.033C335.675 350.705 332.166 347.195 327.837 347.195C323.509 347.195 320 350.705 320 355.033C320 359.362 323.509 362.872 327.837 362.872Z" fill="#653087"/>
<path d="M300.616 362.872C304.944 362.872 308.454 359.362 308.454 355.033C308.454 350.705 304.944 347.195 300.616 347.195C296.287 347.195 292.778 350.705 292.778 355.033C292.778 359.362 296.287 362.872 300.616 362.872Z" fill="#653087"/>
<path d="M273.386 362.872C277.715 362.872 281.224 359.362 281.224 355.033C281.224 350.705 277.715 347.195 273.386 347.195C269.058 347.195 265.549 350.705 265.549 355.033C265.549 359.362 269.058 362.872 273.386 362.872Z" fill="#653087"/>
<path d="M246.157 362.872C250.486 362.872 253.995 359.362 253.995 355.033C253.995 350.705 250.486 347.195 246.157 347.195C241.829 347.195 238.32 350.705 238.32 355.033C238.32 359.362 241.829 362.872 246.157 362.872Z" fill="#653087"/>
<path d="M218.928 362.872C223.257 362.872 226.766 359.362 226.766 355.033C226.766 350.705 223.257 347.195 218.928 347.195C214.6 347.195 211.091 350.705 211.091 355.033C211.091 359.362 214.6 362.872 218.928 362.872Z" fill="#653087"/>
<path d="M389.394 279.178H213.791C212.3 279.178 211.091 280.387 211.091 281.878V292.154C211.091 293.645 212.3 294.854 213.791 294.854H389.394C390.885 294.854 392.094 293.645 392.094 292.154V281.878C392.094 280.387 390.885 279.178 389.394 279.178Z" fill="#653087"/>
<path d="M544.685 42.7402H76.5337C63.3519 42.7402 52.6636 53.4293 52.6636 66.6119V81.4225H568.555V66.6119C568.555 53.4293 557.867 42.7402 544.685 42.7402Z" fill="#F95F6A"/>
<path d="M540.175 68.8042C543.889 68.8042 546.9 65.7927 546.9 62.0779C546.9 58.363 543.889 55.3516 540.175 55.3516C536.46 55.3516 533.449 58.363 533.449 62.0779C533.449 65.7927 536.46 68.8042 540.175 68.8042Z" fill="#EFEEFE"/>
<path d="M512.088 68.8042C515.803 68.8042 518.814 65.7927 518.814 62.0779C518.814 58.363 515.803 55.3516 512.088 55.3516C508.374 55.3516 505.362 58.363 505.362 62.0779C505.362 65.7927 508.374 68.8042 512.088 68.8042Z" fill="#EFEEFE"/>
<path d="M484.001 68.8042C487.716 68.8042 490.727 65.7927 490.727 62.0779C490.727 58.363 487.716 55.3516 484.001 55.3516C480.287 55.3516 477.275 58.363 477.275 62.0779C477.275 65.7927 480.287 68.8042 484.001 68.8042Z" fill="#EFEEFE"/>
<path d="M308.342 232.086C344.015 232.086 372.933 203.166 372.933 167.491C372.933 131.817 344.015 102.896 308.342 102.896C272.67 102.896 243.751 131.817 243.751 167.491C243.751 203.166 272.67 232.086 308.342 232.086Z" fill="#EFEEFE"/>
<path d="M308.342 232.086C344.015 232.086 372.933 203.166 372.933 167.491C372.933 131.817 344.015 102.896 308.342 102.896C272.67 102.896 243.751 131.817 243.751 167.491C243.751 203.166 272.67 232.086 308.342 232.086Z" fill="white"/>
<path d="M308.342 232.085C330.87 232.085 350.706 220.546 362.26 203.052C351.921 183.881 331.648 170.85 308.342 170.85C285.036 170.85 264.763 183.881 254.424 203.052C265.978 220.539 285.814 232.085 308.342 232.085Z" fill="#653087"/>
<path d="M325.943 157.251C335.662 147.532 335.662 131.773 325.943 122.054C316.224 112.334 300.467 112.334 290.748 122.054C281.03 131.773 281.03 147.532 290.748 157.251C300.467 166.97 316.224 166.97 325.943 157.251Z" fill="#653087"/>
<path d="M134.319 157.279C123.988 156.604 114.435 162.743 110.751 172.415C106.232 184.288 100.809 199.463 99.8003 206.412C99.8003 206.412 76.1446 229.49 66.5044 238.63L71.6262 243.069C71.6262 243.069 103.826 222.136 113.641 212.924C123.456 203.72 134.319 157.271 134.319 157.271V157.279Z" fill="#F26D6D"/>
<path d="M228.315 495.366L228.783 496.772L225.607 500.091L222.24 498.606L221.001 496.772L220.636 495.318L228.315 495.366Z" fill="#F6A19E"/>
<path d="M115.324 495.309L115.515 496.77L113.982 499.288L109.48 498.867L108.13 498.041L107.733 496.77L107.741 494.92L115.324 495.309Z" fill="#F6A19E"/>
<path d="M158.705 254.355C157.57 254.188 156.911 251.4 157.339 249.161C157.983 245.786 161 243.991 161.508 243.697C161.961 244.611 162.676 246.413 162.35 248.661C161.945 251.504 159.968 254.537 158.705 254.355Z" fill="#47B27C"/>
<path d="M158.57 252.781C158.888 253.885 156.617 255.64 154.401 256.172C151.066 256.974 148.183 254.973 147.707 254.632C148.358 253.837 149.7 252.448 151.884 251.812C154.639 251.002 158.221 251.558 158.57 252.789V252.781Z" fill="#47B27C"/>
<path d="M157.03 251.424C156.331 252.337 153.576 251.567 151.821 250.114C149.176 247.922 149.057 244.412 149.049 243.824C150.074 243.872 151.987 244.118 153.806 245.484C156.101 247.207 157.8 250.408 157.03 251.424Z" fill="#47B27C"/>
<path d="M165.01 133.383H162.374V122.614H169.147V129.245C169.147 131.525 167.297 133.383 165.01 133.383Z" fill="#2E3192"/>
<path d="M178.009 240.02C178.009 240.02 197.139 264.519 229.553 495.365L219.865 495.318L143.506 282.958V240.027H178.009V240.02Z" fill="#8754AF"/>
<path d="M120.351 226.869C120.351 226.869 97.2672 245.031 97.3783 293.783C97.426 315.622 107.749 494.921 107.749 494.921L115.333 495.31C128.776 427.046 138.512 359.958 149.621 290.527C151.209 290.297 159.356 289.709 160.77 288.049C163.867 284.412 160.841 278.067 160.913 275.28C161.175 264.114 161.246 238.583 160.524 229.164C151.59 229.903 128.76 227.687 120.367 226.869H120.351Z" fill="#8754AF"/>
<path d="M107.741 494.921C107.741 494.921 97.4182 315.622 97.3705 293.783C97.2593 245.023 120.343 226.869 120.343 226.869C122.289 227.099 124.274 227.306 126.291 227.512L131.723 230.975C131.723 230.975 115.388 326.517 115.785 383.647C116.008 415.396 115.976 459.423 115.912 492.285C115.714 493.293 115.523 494.302 115.317 495.31L107.733 494.921H107.741Z" fill="#653087"/>
<path d="M116.46 240.846C113.291 240.076 111.108 237.185 111.243 233.929C111.934 217.483 114.038 198.813 118.699 178.634C120.756 169.739 123.106 161.393 125.624 153.626C135.55 151.427 145.476 149.235 155.402 147.035L178.438 156.057C180.114 169.215 181.289 184.097 181.384 200.417C181.479 215.219 180.677 228.831 179.399 241.045C179.272 242.284 178.319 243.284 177.088 243.475C169.171 244.69 159.729 245.524 149.12 245.23C136.479 244.88 125.449 243.03 116.46 240.838V240.846Z" fill="#F9E0D2"/>
<path d="M113.8 240.17C112.188 239.749 111.092 238.272 111.148 236.604C111.711 219.522 113.792 199.907 118.707 178.632C120.764 169.738 122.328 161.249 124.845 153.49C131.206 152.084 138.361 150.814 144.721 149.408C146.802 149.734 149.811 150.576 151.479 153.029C153.679 156.262 152.416 160.598 152.043 161.995C149.899 169.897 144.142 200.924 136.296 244.347C127.768 243.402 120.208 241.853 113.808 240.17H113.8Z" fill="#FFC5AE"/>
<path d="M165.201 132.509L162.541 154.546L148.351 152.871L151.336 129.785L165.201 132.509Z" fill="#FB9C98"/>
<path d="M151.336 129.785L165.201 132.509L165.05 133.772C163.597 139.775 157.602 145.334 151.892 144.103C151.066 143.929 150.304 143.611 149.597 143.198L151.336 129.785Z" fill="#F26D6D"/>
<path d="M153.012 116.119C152.496 116.413 148.597 118.756 147.207 123.338C145.365 129.429 148.35 138.188 154.552 139.53C160.492 140.817 166.741 134.742 167.861 128.476C168.854 122.917 166.035 116.048 161.008 114.571C157.474 113.53 154.06 115.508 153.004 116.119H153.012Z" fill="#FB9C98"/>
<path d="M147.263 110.417C145.802 113.22 151.987 118.835 152.599 119.383C157.872 124.1 166.448 127.086 168.941 124.306C170.775 122.265 169.084 117.389 166.861 114.491C161.453 107.455 148.986 107.105 147.263 110.409V110.417Z" fill="#2E3192"/>
<path d="M169.568 127.928C169.87 126.332 168.822 124.799 167.226 124.497C165.63 124.195 164.097 125.244 163.795 126.84C163.494 128.436 164.542 129.969 166.138 130.27C167.734 130.572 169.267 129.524 169.568 127.928Z" fill="#FB9C98"/>
<path d="M149.319 134.218C149.192 134.758 150.185 135.505 151.034 135.751C152.519 136.18 154.354 135.29 155.314 133.432C150.669 133.233 149.446 133.694 149.319 134.218Z" fill="white"/>
<path d="M71.6343 243.07L68.2594 246.278C67.9418 247.247 67.2748 248.875 65.8534 250.4C65.1784 251.122 62.3197 254.196 59.0004 253.553C56.6658 253.1 54.498 250.876 54.8712 249.661C54.9903 249.256 55.3874 248.994 55.7765 248.819L66.5125 238.639L71.6343 243.078V243.07Z" fill="#F26D6D"/>
<path d="M142.808 149.83C147.008 148.901 151.209 147.972 155.402 147.043L169.124 152.419C166.447 154.619 162.723 156.501 158.681 156.922C152.567 157.565 146.548 154.794 142.808 149.83Z" fill="#FB9C98"/>
<path d="M192.073 180.943C194.987 177.56 197.957 174.114 200.379 170.469C206.287 175.321 211.313 180.729 213.862 186.367C216.324 191.823 213.997 198.549 209.32 205.427C203.412 205.49 196.845 203.965 191.295 201.781C193.248 199.59 195.043 197.771 196.551 196.58C196.551 196.58 191.684 192.625 185.911 187.328C188.42 185.001 190.461 182.81 192.073 180.935V180.943Z" fill="#FB9C98"/>
<path d="M115.515 496.771C115.515 496.771 119.263 500.385 115.515 504.133H99.292V496.771H107.733C107.733 496.771 111.6 499.035 115.515 496.771Z" fill="#2E3192"/>
<path d="M105.621 504.133H92.9551V503.101C92.9551 499.607 95.79 496.771 99.2839 496.771C102.778 496.771 105.613 499.607 105.613 503.101V504.133H105.621Z" fill="#2E3192"/>
<path d="M92.4154 505.309H116.174V504.125H92.4154V505.309Z" fill="#F9E0D2"/>
<path d="M221.001 496.771C221.001 496.771 217.253 500.385 221.001 504.133H240.17L239.479 496.771H228.791C228.791 496.771 224.924 499.035 221.009 496.771H221.001Z" fill="#2E3192"/>
<path d="M246.515 504.133H220.342V505.316H246.515V504.133Z" fill="#F9E0D2"/>
<path d="M239.479 496.771C242.973 496.771 245.808 499.607 245.808 503.101V504.133H239.479V496.771Z" fill="#2E3192"/>
<path d="M124.846 153.49C117.063 155.095 110.997 161.201 109.448 169L106.971 181.492L122.956 181.992L124.853 153.482L124.846 153.49Z" fill="#FFC5AE"/>
<path d="M63.6457 241.512C63.6457 241.512 60.2709 241.591 59.8182 241.909C59.3656 242.226 57.6345 245.117 58.6351 246.777C59.6277 248.437 61.192 243.759 61.192 243.759L63.6457 241.52V241.512Z" fill="#F26D6D"/>
<path d="M185.911 187.336C178.399 180.443 169.354 171.279 167.52 165.593C164.28 155.547 171.419 153.49 171.419 153.49C171.419 153.49 186.768 157.016 200.387 170.469C197.957 174.114 194.995 177.56 192.081 180.943C190.469 182.818 188.436 185.001 185.919 187.336H185.911Z" fill="#F9E0D2"/>
<path d="M201.284 170.048L186.212 188.48L183.528 185.685L199.307 168.031L201.284 170.048Z" fill="#FFC5AE"/>
<path d="M121.384 179.991L105.899 179.467V182.675L120.955 183.009L121.384 179.991Z" fill="#FFC5AE"/>
<path d="M169.131 152.419C169.131 152.419 155.203 164.609 142.808 149.83" stroke="#FFC5AE" stroke-width="3.32" stroke-miterlimit="10" stroke-linecap="round"/>
<path d="M167.504 200.21C155.918 199.75 141.902 198.217 126.386 194.381C115.602 191.713 106.073 188.425 97.9101 185.082C89.612 188.084 79.9559 190.975 69.077 193.198C53.4177 196.39 39.3545 197.343 27.7529 197.328C26.2362 206.659 20.5585 248.033 47.3668 285.842C63.6693 308.824 84.4822 319.934 95.1388 324.683C105.978 320.379 127.236 310.142 144.475 287.843C172.824 251.178 168.854 209.605 167.718 200.218" fill="#1A897E"/>
<path d="M155.076 199.337C146.357 198.463 136.701 196.931 126.378 194.374C115.594 191.705 106.065 188.418 97.9023 185.074C89.6042 188.076 79.9481 190.967 69.0692 193.19C53.4099 196.383 39.3467 197.344 27.7451 197.32C26.2284 206.651 20.5507 248.025 47.359 285.834C58.3491 301.335 71.4038 311.437 82.0048 317.822C92.8599 313.502 114.078 303.257 131.278 281.006C155.537 249.621 156.124 214.64 155.084 199.329L155.076 199.337Z" fill="#45B4AD"/>
<path d="M70.8638 239.877L96.6556 266.758L123.877 240.623" stroke="white" stroke-width="8.58" stroke-linecap="round" stroke-linejoin="round"/>
<path d="M176.453 236.995C174.579 238.4 172.927 239.608 171.593 240.561C171.371 240.719 171.156 240.87 170.95 241.013C169.116 242.316 168.028 243.046 168.028 243.046L167.575 240.473L166.678 235.327C166.678 235.327 175.905 221.2 184.823 209.669C185.029 209.399 185.235 209.137 185.442 208.867C186.268 207.803 187.094 206.77 187.904 205.777C189.452 203.872 190.961 202.117 192.366 200.592C195.916 201.195 199.608 202.18 203.348 203.189C205.54 203.776 207.597 204.435 209.511 205.134C202.491 215.617 189.928 226.512 180.463 233.914C179.05 235.025 177.7 236.05 176.445 236.995H176.453Z" fill="#FB9C98"/>
<path d="M163.7 237.916C157.609 238.043 156.164 238.71 156.069 239.338C155.934 240.203 158.197 241.95 160.563 241.41C162.223 241.029 163.478 239.631 163.7 237.916Z" fill="#FB9C98"/>
<path d="M171.03 240.964L168.028 243.052C167.663 244.005 166.916 245.594 165.415 247.047C164.701 247.738 161.683 250.66 158.412 249.842C156.109 249.27 154.052 246.944 154.481 245.737C154.624 245.332 155.037 245.093 155.426 244.942L168.322 232.84L171.03 240.956V240.964Z" fill="#FB9C98"/>
<path d="M442.955 505.968C442.955 505.968 447.839 461.647 467.04 420.709C486.241 379.764 510.627 350.5 510.627 350.5" stroke="#8754AF" stroke-width="2.25" stroke-miterlimit="10"/>
<path d="M485.939 386.243C485.097 379.676 484.255 373.116 483.414 366.549" stroke="#8754AF" stroke-width="2.25" stroke-miterlimit="10"/>
<path d="M497.763 368.154C503.29 366.597 508.808 365.049 514.335 363.492" stroke="#8754AF" stroke-width="2.25" stroke-miterlimit="10"/>
<path d="M469.319 415.785C469.319 415.785 436.261 366.279 471.606 368.606C471.606 368.606 471.042 305.544 491.799 336.023C491.799 336.023 537.125 286.89 527.231 355.733C527.231 355.733 551.062 358.727 513.009 381.463C513.009 381.463 549.251 401.69 469.319 415.777V415.785Z" stroke="#8754AF" stroke-width="2.25" stroke-miterlimit="10"/>
</g>
<defs>
<clipPath id="clip0_9140_10944">
<rect width="642" height="509" fill="white"/>
</clipPath>
</defs>
</svg>
