<svg width="295" height="64" viewBox="0 0 295 64" fill="none" xmlns="http://www.w3.org/2000/svg">
<g clip-path="url(#clip0_8902_5903)">
<path d="M70.9016 52.7573L71.5247 55.9558C71.6838 56.7714 71.8455 57.6348 71.9728 58.5301H72.0046C72.1637 57.6348 72.3891 56.7395 72.58 55.9718L73.4099 52.7573H75.3243L76.1065 55.8735C76.3134 56.7555 76.5228 57.6348 76.6819 58.5301H76.7137C76.8251 57.6348 76.9868 56.7555 77.1618 55.8575L77.8327 52.7573H80.2111L77.8141 60.5757H75.5338L74.7993 57.8261C74.6084 57.0583 74.4653 56.3543 74.3035 55.3953H74.2717C74.1285 56.3703 73.9668 57.0902 73.7626 57.8261L72.9804 60.5757H70.6974L68.4304 52.7573H70.9043H70.9016Z" fill="#312782"/>
<path d="M87.4683 52.7573L88.0888 55.9558C88.2479 56.7714 88.4069 57.6348 88.5369 58.5301H88.566C88.7251 57.6348 88.9505 56.7395 89.1414 55.9718L89.9713 52.7573H91.8857L92.6679 55.8735C92.8774 56.7555 93.0842 57.6348 93.2433 58.5301H93.2751C93.3865 57.6348 93.5456 56.7555 93.7206 55.8575L94.3914 52.7573H96.7698L94.3755 60.5757H92.0926L91.3581 57.8261C91.1645 57.0583 91.024 56.3543 90.8622 55.3953H90.8304C90.6872 56.3703 90.5255 57.0902 90.3187 57.8261L89.5365 60.5757H87.2535L84.9865 52.7573H87.4604H87.4683Z" fill="#312782"/>
<path d="M104.035 52.7573L104.658 55.9558C104.817 56.7714 104.976 57.6348 105.104 58.5301H105.135C105.294 57.6348 105.52 56.7395 105.711 55.9718L106.541 52.7573H108.455L109.24 55.8735C109.447 56.7555 109.654 57.6348 109.813 58.5301H109.844C109.958 57.6348 110.118 56.7555 110.293 55.8575L110.963 52.7573H113.342L110.948 60.5757H108.665L107.933 57.8261C107.739 57.0583 107.596 56.3543 107.437 55.3953H107.405C107.262 56.3703 107.103 57.0902 106.896 57.8261L106.114 60.5757H103.831L101.564 52.7573H104.038H104.035Z" fill="#312782"/>
<path d="M117.677 59.2819C117.677 58.4185 118.268 57.7942 119.114 57.7942C119.96 57.7942 120.535 58.4052 120.535 59.2819C120.535 60.1586 119.963 60.7536 119.101 60.7536C118.239 60.7536 117.68 60.1293 117.68 59.2819H117.677Z" fill="#312782"/>
<path d="M126.138 58.4504C126.586 58.7214 127.509 59.0402 128.23 59.0402C128.951 59.0402 129.267 58.7851 129.267 58.384C129.267 57.9828 129.028 57.7916 128.116 57.4887C126.507 56.9468 125.883 56.0674 125.897 55.1403C125.897 53.6845 127.143 52.5793 129.073 52.5793C129.98 52.5793 130.797 52.7892 131.277 53.0309L130.844 54.7099C130.492 54.5186 129.824 54.2609 129.153 54.2609C128.562 54.2609 128.227 54.5 128.227 54.9012C128.227 55.2678 128.53 55.4617 129.487 55.7965C130.972 56.3065 131.595 57.061 131.611 58.2113C131.611 59.6698 130.463 60.7404 128.23 60.7404C127.207 60.7404 126.297 60.5146 125.706 60.1958L126.138 58.453V58.4504Z" fill="#312782"/>
<path d="M144.587 58.0652C144.587 59.0906 144.619 59.9221 144.651 60.5757H142.543L142.432 59.4732H142.384C142.082 59.9513 141.347 60.7536 139.945 60.7536C138.364 60.7536 137.2 59.7601 137.2 57.3452V52.7573H139.642V56.9627C139.642 58.0944 140.005 58.7851 140.854 58.7851C141.522 58.7851 141.907 58.3202 142.066 57.935C142.129 57.7889 142.145 57.6003 142.145 57.4063V52.7546H144.585V58.0625L144.587 58.0652Z" fill="#312782"/>
<path d="M155.119 60.5783L154.976 59.7946H154.928C154.417 60.4163 153.621 60.7563 152.693 60.7563C151.115 60.7563 150.174 59.6033 150.174 58.3574C150.174 56.3251 151.993 55.3501 154.756 55.3661V55.2545C154.756 54.8374 154.533 54.2477 153.337 54.2477C152.539 54.2477 151.693 54.5186 151.182 54.8401L150.734 53.27C151.277 52.9672 152.346 52.582 153.77 52.582C156.371 52.582 157.201 54.1201 157.201 55.9585V58.6762C157.201 59.428 157.232 60.1453 157.312 60.5783H155.124H155.119ZM154.833 56.883C153.555 56.8644 152.566 57.1699 152.566 58.1157C152.566 58.74 152.982 59.0428 153.526 59.0428C154.13 59.0428 154.626 58.6443 154.788 58.1502C154.82 58.02 154.833 57.8739 154.833 57.7331V56.8857V56.883Z" fill="#312782"/>
<path d="M170.967 56.5801C170.967 59.4413 168.939 60.7537 166.849 60.7537C164.569 60.7537 162.811 59.25 162.811 56.7209C162.811 54.1919 164.471 52.5767 166.979 52.5767C169.488 52.5767 170.967 54.2264 170.967 56.5775V56.5801ZM165.32 56.6598C165.32 58.0041 165.879 59.0109 166.913 59.0109C167.857 59.0109 168.462 58.0652 168.462 56.6598C168.462 55.4909 168.013 54.3088 166.913 54.3088C165.749 54.3088 165.32 55.5069 165.32 56.6598Z" fill="#312782"/>
<path d="M176.551 60.5783C176.586 60.0656 176.615 59.1225 176.615 58.2432V49.224H179.041V53.6871H179.073C179.534 53.0176 180.351 52.582 181.435 52.582C183.305 52.582 184.676 54.1361 184.662 56.535C184.662 59.351 182.873 60.759 181.085 60.759C180.176 60.759 179.298 60.4189 178.739 59.4918H178.707L178.612 60.581H176.551V60.5783ZM179.044 57.2523C179.044 57.4117 179.06 57.5551 179.089 57.6826C179.248 58.3415 179.807 58.8356 180.507 58.8356C181.544 58.8356 182.186 58.0333 182.186 56.628C182.186 55.4139 181.642 54.4522 180.507 54.4522C179.855 54.4522 179.248 54.949 179.089 55.6503C179.057 55.7964 179.044 55.9399 179.044 56.0993V57.2523Z" fill="#312782"/>
<path d="M190.31 55.3315C190.31 54.1786 190.276 53.4294 190.244 52.7573H192.336L192.415 54.1972H192.482C192.882 53.0602 193.837 52.5793 194.59 52.5793C194.812 52.5793 194.926 52.5793 195.101 52.6139V54.9012C194.926 54.8693 194.714 54.8348 194.444 54.8348C193.553 54.8348 192.943 55.3156 192.784 56.0674C192.752 56.2268 192.739 56.4181 192.739 56.6094V60.5757H190.313V55.3315H190.31Z" fill="#312782"/>
<path d="M204.787 60.5783L204.642 59.7946H204.594C204.082 60.4163 203.284 60.7563 202.359 60.7563C200.778 60.7563 199.837 59.6033 199.837 58.3574C199.837 56.3251 201.659 55.3501 204.419 55.3661V55.2545C204.419 54.8374 204.196 54.2477 202.998 54.2477C202.2 54.2477 201.351 54.5186 200.845 54.8401L200.396 53.27C200.937 52.9672 202.009 52.582 203.43 52.582C206.034 52.582 206.861 54.1201 206.861 55.9585V58.6762C206.861 59.428 206.893 60.1453 206.972 60.5783H204.787ZM204.498 56.883C203.223 56.8644 202.231 57.1699 202.231 58.1157C202.231 58.74 202.648 59.0428 203.189 59.0428C203.793 59.0428 204.292 58.6443 204.451 58.1502C204.482 58.02 204.498 57.8739 204.498 57.7331V56.8857V56.883Z" fill="#312782"/>
<path d="M212.75 59.2819C212.75 58.4185 213.341 57.7942 214.184 57.7942C215.028 57.7942 215.606 58.4052 215.606 59.2819C215.606 60.1586 215.03 60.7536 214.171 60.7536C213.312 60.7536 212.753 60.1293 212.753 59.2819H212.75Z" fill="#312782"/>
<path d="M227.079 60.387C226.649 60.5783 225.835 60.7377 224.907 60.7377C222.386 60.7377 220.773 59.2022 220.773 56.7395C220.773 54.4522 222.338 52.5793 225.241 52.5793C225.88 52.5793 226.583 52.6936 227.089 52.8848L226.708 54.694C226.421 54.5664 225.989 54.4549 225.353 54.4549C224.077 54.4549 223.245 55.3661 223.263 56.6466C223.263 58.0838 224.22 58.8382 225.403 58.8382C225.976 58.8382 226.424 58.7426 226.792 58.5992L227.079 60.3897V60.387Z" fill="#312782"/>
<path d="M240.103 56.5801C240.103 59.4413 238.077 60.7537 235.985 60.7537C233.702 60.7537 231.947 59.25 231.947 56.7209C231.947 54.1919 233.609 52.5767 236.112 52.5767C238.615 52.5767 240.103 54.2264 240.103 56.5775V56.5801ZM234.453 56.6598C234.453 58.0041 235.009 59.0109 236.049 59.0109C236.99 59.0109 237.595 58.0652 237.595 56.6598C237.595 55.4909 237.147 54.3088 236.049 54.3088C234.882 54.3088 234.453 55.5069 234.453 56.6598Z" fill="#312782"/>
<path d="M245.751 55.2518C245.751 54.2769 245.719 53.4454 245.687 52.7573H247.731L247.843 53.812H247.89C248.227 53.3152 248.911 52.5793 250.253 52.5793C251.261 52.5793 252.056 53.092 252.393 53.9076H252.427C252.714 53.5091 253.064 53.1903 253.432 52.9645C253.862 52.7095 254.342 52.5793 254.917 52.5793C256.418 52.5793 257.55 53.6366 257.55 55.9744V60.5783H255.187V56.3251C255.187 55.1881 254.822 54.5346 254.042 54.5346C253.483 54.5346 253.085 54.9171 252.926 55.3847C252.859 55.56 252.828 55.8124 252.828 56.0063V60.581H250.465V56.1976C250.465 55.2067 250.115 54.5346 249.351 54.5346C248.728 54.5346 248.36 55.0128 248.219 55.4166C248.134 55.6052 248.121 55.831 248.121 56.0223V60.581H245.759V55.2545L245.751 55.2518Z" fill="#312782"/>
<path d="M263.45 59.2819C263.45 58.4185 264.041 57.7942 264.887 57.7942C265.733 57.7942 266.311 58.4052 266.311 59.2819C266.311 60.1586 265.735 60.7536 264.873 60.7536C264.012 60.7536 263.452 60.1293 263.452 59.2819H263.45Z" fill="#312782"/>
<path d="M271.858 60.5783C271.892 60.0656 271.924 59.1225 271.924 58.2432V49.224H274.353V53.6871H274.387C274.846 53.0176 275.662 52.582 276.75 52.582C278.616 52.582 279.987 54.1361 279.971 56.535C279.971 59.351 278.184 60.759 276.397 60.759C275.485 60.759 274.607 60.4189 274.05 59.4918H274.019L273.923 60.581H271.86L271.858 60.5783ZM274.353 57.2523C274.353 57.4117 274.369 57.5551 274.4 57.6826C274.557 58.3415 275.119 58.8356 275.819 58.8356C276.858 58.8356 277.495 58.0333 277.495 56.628C277.495 55.4139 276.951 54.4522 275.819 54.4522C275.167 54.4522 274.557 54.949 274.4 55.6503C274.369 55.7964 274.353 55.9399 274.353 56.0993V57.2523Z" fill="#312782"/>
<path d="M285.619 55.3315C285.619 54.1786 285.584 53.4294 285.555 52.7573H287.645L287.722 54.1972H287.785C288.188 53.0602 289.14 52.5793 289.893 52.5793C290.116 52.5793 290.23 52.5793 290.405 52.6139V54.9012C290.23 54.8693 290.023 54.8348 289.747 54.8348C288.854 54.8348 288.252 55.3156 288.09 56.0674C288.056 56.2268 288.042 56.4181 288.042 56.6094V60.5757H285.616V55.3315H285.619Z" fill="#312782"/>
<path fill-rule="evenodd" clip-rule="evenodd" d="M0 18.1127V53.9634C0 59.4944 4.49432 63.9974 10.0174 63.9974H45.7944C51.3148 63.9974 55.8118 59.4944 55.8118 53.9634V18.1127C55.8118 12.579 51.3148 8.07605 45.7944 8.07605H10.0174C4.49432 8.07605 0 12.579 0 18.1127Z" fill="#312782"/>
<path d="M24.736 50.7117H14.4455C13.5652 50.7117 12.8519 49.9971 12.8519 49.1151V31.7835C12.8519 30.9015 13.5652 30.1869 14.4455 30.1869C15.3258 30.1869 16.0391 30.9015 16.0391 31.7835V47.5158H24.736C25.6163 47.5158 26.3296 48.2331 26.3296 49.1124C26.3296 49.9918 25.6163 50.709 24.736 50.709V50.7117Z" fill="white"/>
<path d="M41.2285 50.7117H31.3648C30.4845 50.7117 29.7713 49.9971 29.7713 49.1151V40.7309H25.5527C24.6724 40.7309 23.9591 40.0136 23.9591 39.1343C23.9591 38.2549 24.6724 37.5377 25.5527 37.5377H31.3648C32.2451 37.5377 32.9584 38.2523 32.9584 39.1343V47.5158H39.6323V31.7835C39.6323 30.9015 40.3429 30.1869 41.2258 30.1869C42.1088 30.1869 42.8194 30.9015 42.8194 31.7835V49.1151C42.8194 49.9971 42.1035 50.7117 41.2258 50.7117H41.2285Z" fill="white"/>
<path d="M46.4202 29.9106C46.4414 29.8574 46.4573 29.8043 46.4732 29.7512C46.4758 29.7406 46.4811 29.7299 46.4838 29.7193C46.497 29.6741 46.505 29.6263 46.5156 29.5812C46.5183 29.5626 46.5236 29.544 46.5262 29.5254C46.5315 29.4855 46.5368 29.4483 46.5395 29.4085C46.5421 29.3819 46.5474 29.358 46.5474 29.3314C46.5474 29.2969 46.5474 29.265 46.5474 29.2305C46.5474 29.1986 46.5474 29.1694 46.5474 29.1375C46.5474 29.1083 46.5421 29.0791 46.5421 29.0498C46.5421 29.0153 46.5368 28.9808 46.5342 28.9462C46.5315 28.9197 46.5262 28.8931 46.5209 28.8665C46.5156 28.8293 46.5103 28.7948 46.5023 28.7576C46.497 28.7311 46.4891 28.7045 46.4811 28.6806C46.4705 28.646 46.4626 28.6088 46.452 28.5743C46.444 28.5477 46.4334 28.5212 46.4228 28.4946C46.4095 28.4627 46.3989 28.4282 46.3857 28.3963C46.3724 28.3671 46.3592 28.3405 46.3459 28.314C46.3326 28.2847 46.3167 28.2555 46.3008 28.2263C46.2849 28.1944 46.2637 28.1652 46.2451 28.136C46.2292 28.1121 46.216 28.0882 46.2001 28.0642C46.1789 28.0324 46.1523 28.0005 46.1285 27.9713C46.1126 27.9527 46.0993 27.9314 46.0834 27.9128C46.0569 27.8809 46.0251 27.8491 45.9959 27.8198C45.98 27.8039 45.9641 27.7853 45.9482 27.7694C45.9164 27.7401 45.8845 27.7109 45.8501 27.6844C45.8315 27.6684 45.8156 27.6525 45.797 27.6392C45.7652 27.6153 45.7308 27.5914 45.6989 27.5701C45.6777 27.5568 45.6592 27.5409 45.6379 27.5276L29.1508 16.8986C28.7584 16.6462 28.2997 16.5479 27.8516 16.5984C27.4061 16.5479 26.9447 16.6462 26.5523 16.8986L10.0652 27.5276C10.044 27.5409 10.0254 27.5568 10.0042 27.5701C9.96972 27.594 9.9379 27.6153 9.90608 27.6419C9.88752 27.6551 9.87161 27.6711 9.85305 27.687C9.81858 27.7162 9.78677 27.7428 9.75495 27.7747C9.73904 27.7906 9.72313 27.8066 9.70987 27.8225C9.6807 27.8544 9.64889 27.8836 9.62237 27.9181C9.60646 27.9367 9.5932 27.958 9.5773 27.9766C9.55343 28.0085 9.52692 28.0377 9.5057 28.0722C9.48979 28.0961 9.47654 28.12 9.46063 28.1439C9.44207 28.1732 9.42351 28.2024 9.40495 28.2343C9.38904 28.2635 9.37578 28.2927 9.36252 28.3219C9.34927 28.3485 9.33336 28.3777 9.32275 28.4043C9.30949 28.4362 9.29623 28.4707 9.28298 28.5052C9.27237 28.5318 9.26177 28.5557 9.25381 28.5823C9.2432 28.6168 9.2326 28.654 9.22464 28.6885C9.21669 28.7151 9.20873 28.739 9.20343 28.7656C9.19548 28.8028 9.19017 28.8373 9.18487 28.8745C9.17957 28.9011 9.17426 28.9276 9.17161 28.9542C9.16631 28.9887 9.16631 29.0233 9.16366 29.0578C9.16366 29.087 9.15836 29.1163 9.15836 29.1455C9.15836 29.1774 9.15836 29.2066 9.15836 29.2385C9.15836 29.273 9.15836 29.3049 9.15836 29.3394C9.15836 29.366 9.16366 29.3899 9.16631 29.4165C9.17161 29.4563 9.17426 29.4935 9.17957 29.5333C9.18222 29.5519 9.18752 29.5705 9.19282 29.5891C9.20078 29.6343 9.21139 29.6795 9.22464 29.7246C9.2273 29.7352 9.2326 29.7459 9.23525 29.7592C9.25116 29.8123 9.26707 29.8654 9.28828 29.9159C9.28828 29.9186 9.28828 29.9212 9.29093 29.9239C9.33601 30.0381 9.38904 30.1497 9.45533 30.2559C9.83449 30.859 10.4815 31.1937 11.1443 31.1937C11.3193 31.1937 19.4569 31.1937 27.8516 31.0928C36.2463 31.1964 44.3838 31.1937 44.5588 31.1937C45.2217 31.1937 45.8686 30.859 46.2478 30.2559C46.3141 30.147 46.3698 30.0354 46.4148 29.9212C46.4148 29.9212 46.4148 29.9159 46.4175 29.9159L46.4202 29.9106Z" fill="#F18B2E"/>
<path d="M87.9058 21.9725C87.8634 20.9551 87.3782 20.1315 86.4475 19.4966C85.6891 18.859 84.7611 18.5429 83.6634 18.5429C82.5657 18.5429 81.6562 18.7235 80.935 19.0822C80.2164 19.4408 79.8584 20.1076 79.8584 21.0826C79.8584 21.5076 79.9963 21.8424 80.2721 22.0974C80.5478 22.3524 80.8952 22.5862 81.3168 22.7961C81.9505 23.0511 83.4088 23.3885 85.6918 23.8135C88.6482 24.3183 90.8649 24.8284 92.3471 25.3358C94.7547 26.0956 96.6664 27.2007 98.0797 28.6353C99.4956 30.0751 100.201 32.0463 100.201 34.5409C100.201 36.7007 99.7263 38.555 98.777 40.0958C97.8251 41.6419 96.5604 42.8507 94.9748 43.7167C93.3918 44.5881 91.6179 45.2071 89.6505 45.5896C87.6857 45.9695 85.6255 46.1608 83.4725 46.1608C81.4441 46.1608 79.4687 45.9483 77.5463 45.5232C75.624 45.1008 73.8793 44.4234 72.3175 43.4936C70.7558 42.5638 69.4963 41.3444 68.5497 39.8434C67.6005 38.3425 67.102 36.5732 67.0596 34.5409H79.0338C79.1187 35.6434 79.6278 36.613 80.5531 37.4631C81.2717 38.0981 82.3933 38.4115 83.9153 38.4115C84.9282 38.4115 85.8907 38.2043 86.7975 37.7793C87.7069 37.3569 88.1604 36.7193 88.1604 35.8718C88.1604 34.9022 87.7361 34.2008 86.8929 33.7784C86.0497 33.3587 84.1698 32.8885 81.2532 32.3864C76.4804 31.5814 73.0467 30.3647 70.9547 28.7336C68.8653 27.1051 67.8179 24.8709 67.8179 22.0336C67.8179 20.0465 68.2925 18.3649 69.2444 16.9888C70.1963 15.6126 71.4319 14.5341 72.9539 13.7504C74.4732 12.9667 76.141 12.4035 77.96 12.0687C79.7763 11.726 81.5687 11.5613 83.3478 11.5613C85.3338 11.5613 87.2244 11.7207 89.0195 12.0369C90.8145 12.3557 92.4823 12.9056 94.0255 13.6866C95.5687 14.473 96.8149 15.5515 97.7642 16.925C98.7134 18.3038 99.2304 19.9827 99.3153 21.9752H87.9085L87.9058 21.9725Z" fill="#312782"/>
<path d="M134.421 45.3348H122.315V41.1453H122.187C119.822 44.4873 116.253 46.1583 111.478 46.1583C108.309 46.1583 105.634 45.1966 103.46 43.2679C101.285 41.3419 100.196 38.5817 100.196 34.9847V12.3824H112.743V29.6529C112.743 31.8579 113.008 33.4837 113.535 34.541C114.063 35.5984 115.171 36.1297 116.866 36.1297C117.457 36.1297 118.048 36.034 118.64 35.8428C119.231 35.6541 119.769 35.3221 120.254 34.8598C120.74 34.3923 121.132 33.7361 121.426 32.8886C121.721 32.0465 121.869 31.0078 121.869 29.7804V12.3824H134.419V45.3348H134.421Z" fill="#312782"/>
<path d="M168.544 42.0964C168.353 40.8717 168.26 39.4929 168.26 37.9707V24.446C168.26 22.2888 168.143 20.5328 167.913 19.1753C167.682 17.8204 167.088 16.5639 166.134 15.3976C165.187 14.234 163.633 13.3042 161.48 12.6055C159.324 11.9069 156.387 11.5562 152.669 11.5562C150.471 11.5562 148.427 11.6917 146.523 11.968C144.624 12.2442 142.869 12.7623 141.262 13.5221C139.656 14.2845 138.359 15.395 137.365 16.8534C136.373 18.3146 135.835 20.145 135.75 22.3473H147.411C147.454 21.4148 147.812 20.6258 148.488 19.967C149.164 19.3134 150.368 18.9814 152.099 18.9814C153.239 18.9814 154.212 19.2364 155.016 19.7411C155.817 20.2486 156.22 21.011 156.22 22.0258C156.22 22.9583 155.912 23.6251 155.299 24.0289C154.684 24.43 153.852 24.7355 152.796 24.9507C152.078 25.0756 150.94 25.2483 149.376 25.4581C147.178 25.7132 145.287 26.0081 143.704 26.3481C142.119 26.6855 140.599 27.2248 139.144 27.966C137.685 28.7072 136.5 29.7459 135.593 31.0768C134.684 32.4104 134.23 34.1186 134.23 36.1881C134.23 39.4903 135.318 41.9768 137.497 43.6505C139.671 45.3241 142.448 46.1583 145.828 46.1583C148.069 46.1583 150.076 45.8634 151.847 45.271C153.624 44.6786 155.14 43.6611 156.413 42.2212H156.538C156.538 43.4911 156.686 44.5298 156.983 45.3321H169.782C169.148 44.3997 168.74 43.3237 168.546 42.0937L168.544 42.0964ZM156.22 33.5873C156.135 35.2397 155.607 36.5069 154.637 37.3969C153.663 38.2868 152.436 38.7305 150.959 38.7305C149.861 38.7305 148.931 38.4223 148.17 37.8086C147.411 37.1976 147.029 36.4883 147.029 35.6834C147.029 34.626 147.358 33.8556 148.01 33.3668C148.668 32.8807 149.752 32.4689 151.274 32.1288C153.388 31.6613 155.032 31.1353 156.22 30.5429V33.5873Z" fill="#312782"/>
<path d="M168.544 42.0964C168.353 40.8717 168.26 39.4929 168.26 37.9707V24.446C168.26 22.2888 168.143 20.5328 167.913 19.1753C167.682 17.8204 167.088 16.5639 166.134 15.3976C165.754 14.9274 165.272 14.5023 164.688 14.1065C164.256 14.4811 163.835 14.8716 163.448 15.2913C161.774 17.0872 160.536 19.1381 159.733 21.4546C158.935 23.7712 158.532 26.2285 158.532 28.824C158.532 31.4195 158.935 33.8769 159.733 36.1908C160.536 38.5073 161.774 40.5715 163.448 42.3886C164.503 43.5336 165.749 44.5059 167.144 45.3348H169.779C169.146 44.4023 168.737 43.3264 168.544 42.0964Z" fill="#24195D"/>
<path d="M195.396 35.4629C194.68 37.5589 193.571 39.4106 192.071 41.0152C190.57 42.625 188.693 43.8869 186.431 44.7928C184.169 45.704 181.539 46.161 178.543 46.161C175.546 46.161 172.911 45.7067 170.654 44.7928C168.393 43.8869 166.513 42.6144 165.012 40.9859C163.514 39.3521 162.403 37.5031 161.687 35.4283C160.968 33.3562 160.61 31.1539 160.61 28.824C160.61 26.4942 160.968 24.2946 161.687 22.2224C162.403 20.1476 163.511 18.3039 165.012 16.6967C166.513 15.0895 168.393 13.8302 170.654 12.9217C172.911 12.0105 175.541 11.5562 178.543 11.5562C181.544 11.5562 184.169 12.0105 186.431 12.9217C188.693 13.8302 190.57 15.0895 192.071 16.6967C193.569 18.3039 194.68 20.1476 195.396 22.2224C196.114 24.2946 196.472 26.4969 196.472 28.824C196.472 31.1512 196.114 33.3642 195.396 35.4602V35.4629ZM183.737 25.9363C183.61 25.0278 183.358 24.1723 182.976 23.3674C182.597 22.5625 182.048 21.9169 181.332 21.4307C180.611 20.9419 179.683 20.7002 178.543 20.7002C177.403 20.7002 176.522 20.9419 175.785 21.4307C175.043 21.9169 174.486 22.5625 174.107 23.3674C173.728 24.1723 173.473 25.0278 173.346 25.9363C173.218 26.8502 173.157 27.8092 173.157 28.8267C173.157 29.8442 173.218 30.8085 173.346 31.7171C173.473 32.6256 173.725 33.489 174.107 34.3205C174.486 35.1441 175.035 35.8029 175.756 36.2891C176.472 36.7726 177.405 37.017 178.545 37.017C179.685 37.017 180.614 36.7726 181.335 36.2891C182.051 35.8029 182.599 35.1547 182.979 34.3498C183.36 33.5475 183.612 32.6814 183.74 31.7463C183.867 30.8165 183.928 29.8442 183.928 28.8267C183.928 27.8092 183.864 26.8502 183.74 25.9363H183.737Z" fill="#F18B2E"/>
<path d="M196.854 0H209.401V15.998H209.531C210.499 14.606 211.779 13.5167 213.365 12.7304C214.948 11.9494 216.669 11.5562 218.528 11.5562C221.15 11.5562 223.377 12.0556 225.215 13.0492C227.052 14.0428 228.511 15.3764 229.59 17.0474C230.669 18.721 231.427 20.5514 231.87 22.5385C232.313 24.5283 232.538 26.5819 232.538 28.6992C232.538 30.8165 232.254 32.9099 231.682 34.982C231.109 37.0568 230.245 38.9404 229.083 40.6353C227.919 42.3249 226.461 43.6717 224.708 44.668C222.956 45.6589 220.962 46.1583 218.721 46.1583C217.244 46.1583 215.974 46.0335 214.919 45.7758C213.864 45.5207 212.989 45.1833 212.289 44.761C211.591 44.3412 211.011 43.8949 210.547 43.4273C210.082 42.9651 209.6 42.3913 209.088 41.7138H208.964V45.3348H196.859V0H196.854ZM219.729 25.8433C219.559 24.9135 219.273 24.0448 218.875 23.2372C218.472 22.4349 217.902 21.8106 217.162 21.3643C216.422 20.9207 215.526 20.6975 214.471 20.6975C213.415 20.6975 212.517 20.926 211.779 21.3936C211.04 21.8611 210.47 22.4748 210.069 23.2346C209.666 23.9997 209.383 24.8551 209.213 25.8088C209.04 26.7599 208.958 27.7667 208.958 28.824C208.958 29.8814 209.04 30.8882 209.213 31.8393C209.383 32.793 209.664 33.6617 210.069 34.4454C210.47 35.2264 211.04 35.8507 211.779 36.3156C212.519 36.7832 213.413 37.0143 214.471 37.0143C215.529 37.0143 216.422 36.7832 217.162 36.3156C217.902 35.8507 218.472 35.2371 218.875 34.4746C219.273 33.7148 219.562 32.8461 219.729 31.8738C219.898 30.8988 219.986 29.884 219.986 28.824C219.986 27.7641 219.898 26.7705 219.729 25.8407V25.8433Z" fill="#F18B2E"/>
<path d="M232.851 12.3824H244.889V17.6531H245.019C246.072 15.5809 247.328 14.0428 248.789 13.0518C250.242 12.0583 252.072 11.5588 254.27 11.5588C255.45 11.5588 256.678 11.7262 257.942 12.0662V23.1761C257.142 22.8839 256.402 22.6714 255.726 22.5412C255.05 22.4137 254.143 22.3526 253.003 22.3526C250.468 22.3526 248.569 23.1575 247.299 24.7648C246.032 26.372 245.401 28.8905 245.401 32.3201V45.3348H232.854V12.3824H232.851Z" fill="#F18B2E"/>
<path d="M287.981 37.968C287.981 39.4929 288.08 40.8717 288.268 42.0937C288.461 43.3237 288.872 44.4023 289.503 45.3321H276.707C276.413 44.5298 276.262 43.4911 276.262 42.2212H276.137C274.864 43.6611 273.345 44.6759 271.571 45.271C269.797 45.8608 267.79 46.1583 265.552 46.1583C262.169 46.1583 259.393 45.3241 257.219 43.6505C255.039 41.9768 253.952 39.4903 253.952 36.1881C253.952 34.1186 254.405 32.4104 255.317 31.0768C256.224 29.7459 257.407 28.7072 258.865 27.966C260.323 27.2248 261.843 26.6855 263.428 26.3481C265.014 26.0081 266.905 25.7132 269.1 25.4581C270.662 25.2483 271.805 25.0782 272.52 24.9507C273.578 24.7382 274.411 24.4327 275.026 24.0289C275.636 23.6277 275.946 22.9583 275.946 22.0258C275.946 21.011 275.543 20.2512 274.74 19.7411C273.934 19.2364 272.969 18.9814 271.823 18.9814C270.092 18.9814 268.888 19.3108 268.212 19.967C267.536 20.6258 267.178 21.4148 267.135 22.3473H255.471C255.556 20.145 256.097 18.3146 257.089 16.8534C258.08 15.395 259.38 14.2845 260.984 13.5221C262.591 12.7623 264.341 12.2442 266.244 11.968C268.145 11.6943 270.192 11.5562 272.391 11.5562C276.108 11.5562 279.043 11.9042 281.199 12.6055C283.352 13.3042 284.906 14.234 285.858 15.3976C286.807 16.5612 287.398 17.8204 287.629 19.1753C287.862 20.5328 287.976 22.2862 287.976 24.446V37.9707L287.981 37.968ZM275.944 30.5429C274.761 31.1353 273.114 31.6613 270.996 32.1288C269.477 32.4689 268.389 32.8807 267.734 33.3668C267.08 33.853 266.751 34.6234 266.751 35.6834C266.751 36.4883 267.13 37.1976 267.891 37.8086C268.649 38.425 269.58 38.7305 270.678 38.7305C272.157 38.7305 273.38 38.2868 274.353 37.3969C275.323 36.5069 275.851 35.2397 275.941 33.5873V30.5429H275.944Z" fill="#F18B2E"/>
<path d="M291.102 5.06613C288.955 5.06613 287.207 6.81683 287.207 8.96867C287.207 11.1205 288.955 12.8739 291.102 12.8739C293.25 12.8739 295 11.1232 295 8.96867C295 6.81417 293.25 5.06613 291.102 5.06613ZM291.102 12.1061C289.373 12.1061 287.971 10.7008 287.971 8.96867C287.971 7.23657 289.373 5.83123 291.102 5.83123C292.831 5.83123 294.234 7.23922 294.234 8.96867C294.234 10.6981 292.828 12.1061 291.102 12.1061Z" fill="#F18B2E"/>
<path d="M292.961 9.99944C292.961 9.82942 292.937 9.68065 292.897 9.55845C292.855 9.43359 292.799 9.33529 292.728 9.26091C292.656 9.18387 292.587 9.13073 292.51 9.0962C292.436 9.05901 292.359 9.0351 292.274 9.02181V9.00853C292.343 8.98728 292.417 8.95009 292.494 8.91024C292.566 8.87304 292.648 8.80929 292.728 8.72428C292.815 8.63926 292.887 8.52237 292.948 8.37892C293.009 8.23015 293.038 8.05216 293.038 7.84494C293.038 7.44645 292.911 7.14095 292.651 6.92045C292.391 6.70261 292.009 6.59634 291.511 6.59634H289.305V11.2241H290.116V9.31935H291.304C291.662 9.31935 291.903 9.41233 292.03 9.59829C292.158 9.78426 292.224 10.0977 292.224 10.544C292.224 10.6981 292.232 10.831 292.245 10.9372C292.258 11.0382 292.293 11.1365 292.346 11.2241H293.21C293.128 11.1311 293.067 10.9771 293.025 10.7592C292.982 10.5414 292.958 10.289 292.958 10.0021L292.961 9.99944ZM291.439 8.69771H290.116V7.25518H291.428C291.545 7.25518 291.651 7.26581 291.741 7.2844C291.837 7.303 291.919 7.33753 291.993 7.38801C292.067 7.4438 292.128 7.51287 292.168 7.60585C292.211 7.70149 292.232 7.81838 292.232 7.95918C292.232 8.45065 291.969 8.69771 291.442 8.69771H291.439Z" fill="#F18B2E"/>
</g>
<defs>
<clipPath id="clip0_8902_5903">
<rect width="295" height="64" fill="white"/>
</clipPath>
</defs>
</svg>
