<svg width="295" height="64" viewBox="0 0 295 64" fill="none" xmlns="http://www.w3.org/2000/svg">
<path fill-rule="evenodd" clip-rule="evenodd" d="M0 18.1128V53.9635C0 59.4945 4.49432 63.9975 10.0174 63.9975H45.7944C51.3148 63.9975 55.8118 59.4945 55.8118 53.9635V18.1128C55.8118 12.5791 51.3148 8.07617 45.7944 8.07617H10.0174C4.49432 8.07617 0 12.5791 0 18.1128Z" fill="#312782"/>
<path d="M24.7357 50.7123H14.4451C13.5648 50.7123 12.8516 49.9977 12.8516 49.1157V31.7841C12.8516 30.9021 13.5648 30.1875 14.4451 30.1875C15.3254 30.1875 16.0387 30.9021 16.0387 31.7841V47.5165H24.7357C25.616 47.5165 26.3292 48.2337 26.3292 49.1131C26.3292 49.9924 25.616 50.7097 24.7357 50.7097V50.7123Z" fill="white"/>
<path d="M41.2283 50.7123H31.3647C30.4844 50.7123 29.7711 49.9977 29.7711 49.1157V40.7315H25.5525C24.6722 40.7315 23.959 40.0142 23.959 39.1349C23.959 38.2556 24.6722 37.5383 25.5525 37.5383H31.3647C32.245 37.5383 32.9582 38.2529 32.9582 39.1349V47.5165H39.6321V31.7841C39.6321 30.9021 40.3427 30.1875 41.2257 30.1875C42.1086 30.1875 42.8192 30.9021 42.8192 31.7841V49.1157C42.8192 49.9977 42.1033 50.7123 41.2257 50.7123H41.2283Z" fill="white"/>
<path d="M46.42 29.9109C46.4412 29.8578 46.4571 29.8047 46.473 29.7516C46.4757 29.7409 46.481 29.7303 46.4836 29.7197C46.4969 29.6745 46.5048 29.6267 46.5154 29.5815C46.5181 29.5629 46.5234 29.5443 46.5261 29.5257C46.5314 29.4859 46.5367 29.4487 46.5393 29.4088C46.542 29.3823 46.5473 29.3584 46.5473 29.3318C46.5473 29.2973 46.5473 29.2654 46.5473 29.2309C46.5473 29.199 46.5473 29.1698 46.5473 29.1379C46.5473 29.1087 46.542 29.0794 46.542 29.0502C46.542 29.0157 46.5367 28.9811 46.534 28.9466C46.5314 28.92 46.5261 28.8935 46.5208 28.8669C46.5155 28.8297 46.5101 28.7952 46.5022 28.758C46.4969 28.7314 46.4889 28.7049 46.481 28.6809C46.4704 28.6464 46.4624 28.6092 46.4518 28.5747C46.4439 28.5481 46.4333 28.5215 46.4227 28.495C46.4094 28.4631 46.3988 28.4286 46.3855 28.3967C46.3723 28.3675 46.359 28.3409 46.3458 28.3143C46.3325 28.2851 46.3166 28.2559 46.3007 28.2267C46.2848 28.1948 46.2636 28.1656 46.245 28.1363C46.2291 28.1124 46.2158 28.0885 46.1999 28.0646C46.1787 28.0327 46.1522 28.0009 46.1283 27.9716C46.1124 27.953 46.0992 27.9318 46.0833 27.9132C46.0567 27.8813 46.0249 27.8494 45.9958 27.8202C45.9798 27.8043 45.9639 27.7857 45.948 27.7697C45.9162 27.7405 45.8844 27.7113 45.8499 27.6847C45.8314 27.6688 45.8154 27.6528 45.7969 27.6396C45.7651 27.6157 45.7306 27.5917 45.6988 27.5705C45.6776 27.5572 45.659 27.5413 45.6378 27.528L29.1507 16.899C28.7582 16.6466 28.2995 16.5483 27.8514 16.5988C27.406 16.5483 26.9446 16.6466 26.5522 16.899L10.065 27.528C10.0438 27.5413 10.0252 27.5572 10.004 27.5705C9.96957 27.5944 9.93775 27.6157 9.90593 27.6422C9.88737 27.6555 9.87146 27.6714 9.8529 27.6874C9.81843 27.7166 9.78661 27.7432 9.75479 27.775C9.73889 27.791 9.72298 27.8069 9.70972 27.8229C9.68055 27.8547 9.64873 27.884 9.62222 27.9185C9.60631 27.9371 9.59305 27.9584 9.57714 27.9769C9.55328 28.0088 9.52676 28.038 9.50555 28.0726C9.48964 28.0965 9.47639 28.1204 9.46048 28.1443C9.44192 28.1735 9.42336 28.2028 9.40479 28.2346C9.38889 28.2639 9.37563 28.2931 9.36237 28.3223C9.34911 28.3489 9.3332 28.3781 9.3226 28.4047C9.30934 28.4365 9.29608 28.4711 9.28282 28.5056C9.27222 28.5322 9.26161 28.5561 9.25366 28.5826C9.24305 28.6172 9.23245 28.6544 9.22449 28.6889C9.21654 28.7155 9.20858 28.7394 9.20328 28.766C9.19532 28.8031 9.19002 28.8377 9.18472 28.8749C9.17941 28.9014 9.17411 28.928 9.17146 28.9546C9.16616 28.9891 9.16616 29.0236 9.16351 29.0582C9.16351 29.0874 9.1582 29.1166 9.1582 29.1458C9.1582 29.1777 9.1582 29.2069 9.1582 29.2388C9.1582 29.2734 9.1582 29.3052 9.1582 29.3398C9.1582 29.3663 9.16351 29.3903 9.16616 29.4168C9.17146 29.4567 9.17411 29.4939 9.17941 29.5337C9.18207 29.5523 9.18737 29.5709 9.19267 29.5895C9.20063 29.6347 9.21123 29.6798 9.22449 29.725C9.22714 29.7356 9.23245 29.7462 9.2351 29.7595C9.25101 29.8127 9.26691 29.8658 9.28813 29.9163C9.28813 29.9189 9.28813 29.9216 9.29078 29.9242C9.33585 30.0385 9.38888 30.15 9.45517 30.2563C9.83434 30.8594 10.4813 31.1941 11.1442 31.1941C11.3192 31.1941 19.4567 31.1941 27.8514 31.0931C36.2461 31.1967 44.3836 31.1941 44.5586 31.1941C45.2215 31.1941 45.8685 30.8594 46.2477 30.2563C46.3139 30.1474 46.3696 30.0358 46.4147 29.9216C46.4147 29.9216 46.4147 29.9163 46.4173 29.9163L46.42 29.9109Z" fill="#F18B2E"/>
<path d="M87.9058 29.9737C87.8634 28.9562 87.3782 28.1327 86.4475 27.4977C85.6891 26.8602 84.7611 26.544 83.6634 26.544C82.5657 26.544 81.6562 26.7247 80.935 27.0833C80.2164 27.442 79.8584 28.1088 79.8584 29.0837C79.8584 29.5088 79.9963 29.8435 80.2721 30.0985C80.5478 30.3536 80.8952 30.5874 81.3168 30.7972C81.9505 31.0523 83.4088 31.3897 85.6918 31.8147C88.6482 32.3195 90.8649 32.8295 92.3471 33.3369C94.7547 34.0967 96.6664 35.2019 98.0797 36.6364C99.4956 38.0763 100.201 40.0475 100.201 42.542C100.201 44.7018 99.7263 46.5561 98.777 48.097C97.8251 49.6431 96.5604 50.8519 94.9748 51.7179C93.3918 52.5893 91.6179 53.2083 89.6505 53.5908C87.6857 53.9707 85.6255 54.162 83.4725 54.162C81.4441 54.162 79.4687 53.9494 77.5463 53.5244C75.624 53.102 73.8793 52.4246 72.3175 51.4948C70.7558 50.5649 69.4963 49.3456 68.5497 47.8446C67.6005 46.3436 67.102 44.5743 67.0596 42.542H79.0338C79.1187 43.6445 79.6278 44.6142 80.5531 45.4643C81.2717 46.0992 82.3933 46.4127 83.9153 46.4127C84.9282 46.4127 85.8907 46.2055 86.7975 45.7804C87.7069 45.358 88.1604 44.7204 88.1604 43.873C88.1604 42.9033 87.7361 42.202 86.8929 41.7796C86.0497 41.3599 84.1698 40.8896 81.2532 40.3875C76.4804 39.5826 73.0467 38.3659 70.9547 36.7347C68.8653 35.1062 67.8179 32.872 67.8179 30.0348C67.8179 28.0477 68.2925 26.366 69.2444 24.9899C70.1963 23.6138 71.4319 22.5352 72.9539 21.7515C74.4732 20.9678 76.141 20.4046 77.96 20.0699C79.7763 19.7272 81.5687 19.5625 83.3478 19.5625C85.3338 19.5625 87.2244 19.7219 89.0195 20.038C90.8145 20.3568 92.4823 20.9067 94.0255 21.6878C95.5687 22.4741 96.8149 23.5527 97.7642 24.9262C98.7134 26.3049 99.2304 27.9839 99.3153 29.9763H87.9085L87.9058 29.9737Z" fill="#312782"/>
<path d="M134.422 53.3352H122.315V49.1458H122.187C119.822 52.4877 116.253 54.1587 111.478 54.1587C108.309 54.1587 105.634 53.1971 103.46 51.2684C101.286 49.3423 100.196 46.5821 100.196 42.9851V20.3828H112.743V37.6533C112.743 39.8583 113.008 41.4841 113.536 42.5415C114.063 43.5988 115.172 44.1301 116.866 44.1301C117.457 44.1301 118.048 44.0345 118.64 43.8432C119.231 43.6546 119.769 43.3225 120.255 42.8603C120.74 42.3927 121.132 41.7365 121.427 40.8891C121.721 40.0469 121.869 39.0082 121.869 37.7808V20.3828H134.419V53.3352H134.422Z" fill="#312782"/>
<path d="M168.544 50.0968C168.353 48.8722 168.26 47.4934 168.26 45.9712V32.4464C168.26 30.2893 168.143 28.5333 167.913 27.1758C167.682 25.8209 167.088 24.5643 166.134 23.3981C165.187 22.2345 163.633 21.3047 161.48 20.606C159.324 19.9073 156.387 19.5566 152.669 19.5566C150.471 19.5566 148.427 19.6921 146.523 19.9684C144.624 20.2447 142.869 20.7627 141.262 21.5225C139.655 22.285 138.359 23.3954 137.365 24.8539C136.373 26.315 135.835 28.1454 135.75 30.3477H147.411C147.454 29.4153 147.812 28.6263 148.488 27.9674C149.164 27.3139 150.368 26.9818 152.099 26.9818C153.239 26.9818 154.212 27.2369 155.016 27.7416C155.816 28.249 156.22 29.0115 156.22 30.0263C156.22 30.9587 155.912 31.6255 155.299 32.0293C154.684 32.4305 153.852 32.736 152.796 32.9512C152.078 33.076 150.94 33.2487 149.376 33.4586C147.178 33.7136 145.287 34.0085 143.704 34.3486C142.119 34.6859 140.599 35.2252 139.144 35.9664C137.685 36.7076 136.5 37.7463 135.593 39.0773C134.684 40.4109 134.23 42.1191 134.23 44.1886C134.23 47.4907 135.318 49.9773 137.497 51.651C139.671 53.3246 142.448 54.1588 145.828 54.1588C148.069 54.1588 150.076 53.8639 151.847 53.2715C153.624 52.6791 155.14 51.6616 156.413 50.2217H156.538C156.538 51.4916 156.686 52.5303 156.983 53.3326H169.782C169.148 52.4001 168.74 51.3242 168.546 50.0942L168.544 50.0968ZM156.22 41.5878C156.135 43.2402 155.607 44.5074 154.637 45.3973C153.663 46.2873 152.436 46.7309 150.959 46.7309C149.861 46.7309 148.93 46.4228 148.17 45.8091C147.411 45.1981 147.029 44.4888 147.029 43.6838C147.029 42.6265 147.358 41.8561 148.01 41.3673C148.668 40.8811 149.752 40.4693 151.274 40.1293C153.388 39.6617 155.032 39.1357 156.22 38.5433V41.5878Z" fill="#312782"/>
<path d="M168.544 50.0973C168.353 48.8726 168.26 47.4938 168.26 45.9716V32.4469C168.26 30.2897 168.143 28.5337 167.913 27.1762C167.682 25.8213 167.088 24.5648 166.134 23.3985C165.754 22.9283 165.272 22.5033 164.689 22.1074C164.256 22.482 163.835 22.8725 163.448 23.2923C161.775 25.0881 160.536 27.139 159.733 29.4556C158.935 31.7721 158.532 34.2295 158.532 36.825C158.532 39.4204 158.935 41.8778 159.733 44.1917C160.536 46.5082 161.775 48.5724 163.448 50.3895C164.503 51.5345 165.749 52.5068 167.144 53.3357H169.779C169.146 52.4032 168.737 51.3273 168.544 50.0973Z" fill="#24195D"/>
<path d="M195.396 43.4633C194.68 45.5594 193.571 47.411 192.071 49.0156C190.57 50.6255 188.693 51.8874 186.431 52.7933C184.169 53.7045 181.539 54.1614 178.543 54.1614C175.546 54.1614 172.911 53.7072 170.654 52.7933C168.393 51.8874 166.513 50.6149 165.012 48.9864C163.514 47.3526 162.403 45.5036 161.687 43.4288C160.968 41.3567 160.61 39.1543 160.61 36.8245C160.61 34.4947 160.968 32.295 161.687 30.2229C162.403 28.1481 163.511 26.3044 165.012 24.6971C166.513 23.0899 168.393 21.8307 170.654 20.9221C172.911 20.0109 175.541 19.5566 178.543 19.5566C181.544 19.5566 184.169 20.0109 186.431 20.9221C188.693 21.8307 190.57 23.0899 192.071 24.6971C193.569 26.3044 194.68 28.1481 195.396 30.2229C196.114 32.295 196.472 34.4973 196.472 36.8245C196.472 39.1517 196.114 41.3646 195.396 43.4607V43.4633ZM183.737 33.9368C183.61 33.0282 183.358 32.1728 182.976 31.3679C182.597 30.5629 182.048 29.9174 181.332 29.4312C180.611 28.9424 179.683 28.7006 178.543 28.7006C177.402 28.7006 176.522 28.9424 175.785 29.4312C175.043 29.9174 174.486 30.5629 174.107 31.3679C173.727 32.1728 173.473 33.0282 173.346 33.9368C173.218 34.8507 173.157 35.8097 173.157 36.8272C173.157 37.8446 173.218 38.809 173.346 39.7175C173.473 40.6261 173.725 41.4895 174.107 42.321C174.486 43.1445 175.035 43.8034 175.756 44.2895C176.472 44.773 177.405 45.0174 178.545 45.0174C179.685 45.0174 180.613 44.773 181.335 44.2895C182.051 43.8034 182.599 43.1552 182.979 42.3502C183.36 41.5479 183.612 40.6819 183.74 39.7468C183.867 38.8169 183.928 37.8446 183.928 36.8272C183.928 35.8097 183.864 34.8507 183.74 33.9368H183.737Z" fill="#F18B2E"/>
<path d="M196.854 8H209.401V23.998H209.531C210.499 22.606 211.779 21.5167 213.365 20.7304C214.948 19.9494 216.669 19.5562 218.528 19.5562C221.15 19.5562 223.377 20.0556 225.215 21.0492C227.052 22.0428 228.51 23.3764 229.59 25.0474C230.669 26.721 231.427 28.5514 231.87 30.5385C232.313 32.5283 232.538 34.5819 232.538 36.6992C232.538 38.8165 232.254 40.9099 231.682 42.982C231.109 45.0568 230.245 46.9404 229.083 48.6353C227.919 50.3249 226.461 51.6717 224.708 52.668C222.956 53.6589 220.962 54.1583 218.721 54.1583C217.244 54.1583 215.974 54.0335 214.919 53.7758C213.863 53.5207 212.989 53.1833 212.288 52.761C211.591 52.3412 211.01 51.8949 210.546 51.4273C210.082 50.9651 209.6 50.3913 209.088 49.7138H208.964V53.3348H196.859V8H196.854ZM219.729 33.8433C219.559 32.9135 219.273 32.0448 218.875 31.2372C218.472 30.4349 217.902 29.8106 217.162 29.3643C216.422 28.9207 215.526 28.6975 214.471 28.6975C213.415 28.6975 212.517 28.926 211.779 29.3936C211.04 29.8611 210.47 30.4748 210.069 31.2346C209.666 31.9997 209.382 32.8551 209.213 33.8088C209.04 34.7599 208.958 35.7667 208.958 36.824C208.958 37.8814 209.04 38.8882 209.213 39.8393C209.382 40.793 209.663 41.6617 210.069 42.4454C210.47 43.2264 211.04 43.8507 211.779 44.3156C212.519 44.7832 213.413 45.0143 214.471 45.0143C215.529 45.0143 216.422 44.7832 217.162 44.3156C217.902 43.8507 218.472 43.2371 218.875 42.4746C219.273 41.7148 219.562 40.8461 219.729 39.8738C219.898 38.8988 219.986 37.884 219.986 36.824C219.986 35.7641 219.898 34.7705 219.729 33.8407V33.8433Z" fill="#F18B2E"/>
<path d="M232.851 20.3821H244.889V25.6528H245.019C246.072 23.5807 247.328 22.0425 248.789 21.0516C250.242 20.058 252.072 19.5586 254.27 19.5586C255.45 19.5586 256.678 19.726 257.942 20.066V31.1759C257.142 30.8837 256.402 30.6711 255.726 30.541C255.05 30.4134 254.143 30.3523 253.003 30.3523C250.468 30.3523 248.569 31.1573 247.299 32.7645C246.032 34.3718 245.401 36.8902 245.401 40.3199V53.3345H232.854V20.3821H232.851Z" fill="#F18B2E"/>
<path d="M287.981 45.9685C287.981 47.4934 288.079 48.8722 288.268 50.0942C288.461 51.3242 288.872 52.4028 289.503 53.3326H276.707C276.413 52.5303 276.262 51.4916 276.262 50.2217H276.137C274.864 51.6616 273.345 52.6764 271.571 53.2715C269.797 53.8612 267.79 54.1588 265.552 54.1588C262.169 54.1588 259.393 53.3246 257.218 51.651C255.039 49.9773 253.952 47.4907 253.952 44.1886C253.952 42.1191 254.405 40.4109 255.317 39.0773C256.224 37.7463 257.407 36.7076 258.865 35.9664C260.323 35.2252 261.843 34.6859 263.428 34.3486C265.014 34.0085 266.904 33.7136 269.1 33.4586C270.662 33.2487 271.804 33.0787 272.52 32.9512C273.578 32.7387 274.411 32.4332 275.026 32.0293C275.636 31.6282 275.946 30.9587 275.946 30.0263C275.946 29.0115 275.543 28.2517 274.74 27.7416C273.934 27.2369 272.968 26.9818 271.823 26.9818C270.091 26.9818 268.888 27.3112 268.212 27.9674C267.535 28.6263 267.177 29.4153 267.135 30.3477H255.471C255.556 28.1454 256.097 26.315 257.088 24.8539C258.08 23.3954 259.379 22.285 260.983 21.5225C262.59 20.7627 264.34 20.2447 266.244 19.9684C268.145 19.6948 270.192 19.5566 272.39 19.5566C276.108 19.5566 279.043 19.9047 281.199 20.606C283.352 21.3047 284.905 22.2345 285.857 23.3981C286.807 24.5617 287.398 25.8209 287.629 27.1758C287.862 28.5333 287.976 30.2866 287.976 32.4464V45.9712L287.981 45.9685ZM275.943 38.5433C274.761 39.1357 273.114 39.6617 270.996 40.1293C269.476 40.4693 268.389 40.8811 267.734 41.3673C267.079 41.8534 266.751 42.6238 266.751 43.6838C266.751 44.4888 267.13 45.1981 267.891 45.8091C268.649 46.4254 269.58 46.7309 270.677 46.7309C272.157 46.7309 273.379 46.2873 274.352 45.3973C275.323 44.5074 275.851 43.2402 275.941 41.5878V38.5433H275.943Z" fill="#F18B2E"/>
<path d="M291.102 13.0664C288.954 13.0664 287.207 14.8171 287.207 16.9689C287.207 19.1208 288.954 20.8741 291.102 20.8741C293.25 20.8741 295 19.1234 295 16.9689C295 14.8144 293.25 13.0664 291.102 13.0664ZM291.102 20.1064C289.373 20.1064 287.971 18.701 287.971 16.9689C287.971 15.2368 289.373 13.8315 291.102 13.8315C292.831 13.8315 294.234 15.2395 294.234 16.9689C294.234 18.6984 292.828 20.1064 291.102 20.1064Z" fill="#F18B2E"/>
<path d="M292.961 17.9988C292.961 17.8288 292.937 17.68 292.897 17.5578C292.855 17.4329 292.799 17.3347 292.727 17.2603C292.656 17.1832 292.587 17.1301 292.51 17.0956C292.436 17.0584 292.359 17.0345 292.274 17.0212V17.0079C292.343 16.9866 292.417 16.9494 292.494 16.9096C292.566 16.8724 292.648 16.8086 292.727 16.7236C292.815 16.6386 292.886 16.5217 292.947 16.3783C293.008 16.2295 293.038 16.0515 293.038 15.8443C293.038 15.4458 292.91 15.1403 292.65 14.9198C292.391 14.702 292.009 14.5957 291.51 14.5957H289.304V19.2235H290.116V17.3187H291.303C291.661 17.3187 291.903 17.4117 292.03 17.5977C292.157 17.7836 292.224 18.0971 292.224 18.5434C292.224 18.6975 292.231 18.8303 292.245 18.9366C292.258 19.0375 292.292 19.1358 292.346 19.2235H293.21C293.128 19.1305 293.067 18.9764 293.024 18.7586C292.982 18.5407 292.958 18.2884 292.958 18.0015L292.961 17.9988ZM291.439 16.6971H290.116V15.2545H291.428C291.545 15.2545 291.651 15.2652 291.741 15.2838C291.836 15.3024 291.919 15.3369 291.993 15.3874C292.067 15.4432 292.128 15.5122 292.168 15.6052C292.21 15.7008 292.231 15.8177 292.231 15.9585C292.231 16.45 291.969 16.6971 291.441 16.6971H291.439Z" fill="#F18B2E"/>
</svg>
